<svg width="618" height="208" viewBox="0 0 618 208" fill="none" xmlns="http://www.w3.org/2000/svg">
<path d="M606.107 200.093V203.376H607.076C607.572 203.376 607.917 203.131 608.113 202.642C608.22 202.374 608.274 202.054 608.274 201.683C608.274 201.171 608.193 200.779 608.031 200.506C607.872 200.231 607.553 200.093 607.076 200.093H606.107ZM607.253 199.219C607.565 199.224 607.824 199.26 608.031 199.329C608.384 199.445 608.669 199.657 608.888 199.967C609.063 200.217 609.182 200.488 609.246 200.779C609.31 201.07 609.342 201.348 609.342 201.612C609.342 202.28 609.207 202.847 608.939 203.311C608.575 203.937 608.013 204.249 607.253 204.249H605.086V199.219H607.253ZM611.526 201.233C611.3 201.233 611.125 201.303 611 201.444C610.877 201.585 610.8 201.777 610.768 202.018H612.28C612.264 201.761 612.185 201.566 612.044 201.434C611.906 201.3 611.733 201.233 611.526 201.233ZM611.526 200.431C611.835 200.431 612.114 200.489 612.362 200.605C612.61 200.721 612.814 200.904 612.976 201.154C613.122 201.375 613.216 201.631 613.259 201.922C613.284 202.093 613.294 202.338 613.29 202.659H610.744C610.758 203.032 610.875 203.294 611.096 203.444C611.23 203.537 611.391 203.584 611.58 203.584C611.78 203.584 611.943 203.527 612.068 203.413C612.136 203.352 612.197 203.267 612.249 203.157H613.242C613.217 203.378 613.102 203.602 612.897 203.83C612.579 204.191 612.133 204.372 611.56 204.372C611.087 204.372 610.669 204.22 610.307 203.915C609.946 203.61 609.765 203.114 609.765 202.427C609.765 201.783 609.927 201.29 610.253 200.946C610.58 200.603 611.005 200.431 611.526 200.431ZM616.17 201.864C616.152 201.725 616.105 201.6 616.03 201.489C615.921 201.339 615.751 201.264 615.522 201.264C615.194 201.264 614.97 201.426 614.849 201.752C614.786 201.924 614.754 202.154 614.754 202.441C614.754 202.714 614.786 202.933 614.849 203.099C614.965 203.409 615.184 203.564 615.505 203.564C615.732 203.564 615.894 203.502 615.989 203.379C616.085 203.256 616.143 203.097 616.163 202.902H617.156C617.133 203.197 617.027 203.477 616.835 203.741C616.531 204.166 616.079 204.379 615.481 204.379C614.882 204.379 614.442 204.202 614.16 203.847C613.878 203.492 613.737 203.031 613.737 202.465C613.737 201.825 613.893 201.328 614.204 200.973C614.516 200.619 614.946 200.441 615.494 200.441C615.961 200.441 616.342 200.546 616.638 200.755C616.936 200.964 617.112 201.334 617.166 201.864H616.17Z" fill="#CBD5E0"/>
<path d="M551.955 199.219H553.057L555.06 202.731V199.219H556.039V204.249H554.988L552.934 200.677V204.249H551.955V199.219ZM558.612 203.564C558.897 203.564 559.115 203.462 559.268 203.26C559.42 203.057 559.496 202.77 559.496 202.396C559.496 202.023 559.42 201.737 559.268 201.537C559.115 201.334 558.897 201.233 558.612 201.233C558.328 201.233 558.108 201.334 557.954 201.537C557.801 201.737 557.725 202.023 557.725 202.396C557.725 202.77 557.801 203.057 557.954 203.26C558.108 203.462 558.328 203.564 558.612 203.564ZM560.517 202.396C560.517 202.942 560.36 203.41 560.046 203.799C559.732 204.186 559.255 204.379 558.616 204.379C557.977 204.379 557.5 204.186 557.186 203.799C556.872 203.41 556.715 202.942 556.715 202.396C556.715 201.86 556.872 201.394 557.186 201.001C557.5 200.607 557.977 200.41 558.616 200.41C559.255 200.41 559.732 200.607 560.046 201.001C560.36 201.394 560.517 201.86 560.517 202.396ZM563.509 200.53H564.554L563.212 204.249H562.185L560.851 200.53H561.943L562.718 203.273L563.509 200.53Z" fill="#CBD5E0"/>
<path d="M502.48 203.499C502.896 203.499 503.226 203.345 503.469 203.038C503.715 202.731 503.838 202.294 503.838 201.728C503.838 201.163 503.715 200.728 503.469 200.421C503.226 200.111 502.896 199.957 502.48 199.957C502.063 199.957 501.731 200.11 501.483 200.417C501.235 200.724 501.111 201.161 501.111 201.728C501.111 202.294 501.235 202.731 501.483 203.038C501.731 203.345 502.063 203.499 502.48 203.499ZM504.889 201.728C504.889 202.631 504.635 203.322 504.128 203.802C503.748 204.194 503.199 204.389 502.48 204.389C501.761 204.389 501.211 204.194 500.832 203.802C500.322 203.322 500.067 202.631 500.067 201.728C500.067 200.806 500.322 200.115 500.832 199.653C501.211 199.262 501.761 199.066 502.48 199.066C503.199 199.066 503.748 199.262 504.128 199.653C504.635 200.115 504.889 200.806 504.889 201.728ZM507.837 201.864C507.819 201.725 507.773 201.6 507.697 201.489C507.588 201.339 507.419 201.264 507.189 201.264C506.861 201.264 506.637 201.426 506.517 201.752C506.453 201.924 506.421 202.154 506.421 202.441C506.421 202.714 506.453 202.933 506.517 203.099C506.633 203.409 506.851 203.564 507.172 203.564C507.399 203.564 507.561 203.502 507.657 203.379C507.752 203.256 507.81 203.097 507.831 202.902H508.824C508.801 203.197 508.694 203.477 508.503 203.741C508.198 204.166 507.746 204.379 507.148 204.379C506.55 204.379 506.11 204.202 505.827 203.847C505.545 203.492 505.404 203.031 505.404 202.465C505.404 201.825 505.56 201.328 505.872 200.973C506.183 200.619 506.613 200.441 507.162 200.441C507.628 200.441 508.009 200.546 508.305 200.755C508.603 200.964 508.779 201.334 508.834 201.864H507.837ZM509.124 201.257V200.564H509.643V199.527H510.605V200.564H511.209V201.257H510.605V203.222C510.605 203.375 510.624 203.47 510.663 203.509C510.702 203.545 510.82 203.564 511.018 203.564C511.047 203.564 511.078 203.564 511.11 203.564C511.144 203.561 511.177 203.559 511.209 203.557V204.284L510.748 204.301C510.289 204.317 509.975 204.237 509.806 204.062C509.697 203.95 509.643 203.779 509.643 203.546V201.257H509.124Z" fill="#CBD5E0"/>
<path d="M448.251 202.697C448.283 202.927 448.345 203.098 448.438 203.212C448.609 203.419 448.901 203.523 449.315 203.523C449.563 203.523 449.765 203.495 449.919 203.441C450.213 203.336 450.36 203.142 450.36 202.857C450.36 202.691 450.287 202.563 450.141 202.472C449.996 202.383 449.767 202.304 449.455 202.236L448.923 202.117C448.4 201.998 448.038 201.87 447.838 201.731C447.499 201.499 447.329 201.136 447.329 200.642C447.329 200.192 447.493 199.818 447.821 199.52C448.148 199.222 448.629 199.073 449.264 199.073C449.794 199.073 450.246 199.214 450.619 199.496C450.994 199.776 451.191 200.183 451.209 200.718H450.199C450.181 200.415 450.049 200.2 449.803 200.073C449.64 199.988 449.436 199.946 449.193 199.946C448.922 199.946 448.706 200.001 448.544 200.11C448.383 200.219 448.302 200.372 448.302 200.567C448.302 200.747 448.382 200.881 448.541 200.97C448.643 201.029 448.862 201.099 449.196 201.178L450.063 201.386C450.443 201.477 450.729 201.599 450.923 201.752C451.223 201.988 451.373 202.33 451.373 202.779C451.373 203.238 451.197 203.62 450.844 203.925C450.494 204.228 449.998 204.379 449.356 204.379C448.701 204.379 448.186 204.23 447.81 203.932C447.435 203.632 447.247 203.22 447.247 202.697H448.251ZM453.54 201.233C453.315 201.233 453.14 201.303 453.015 201.444C452.892 201.585 452.814 201.777 452.782 202.018H454.294C454.278 201.761 454.2 201.566 454.059 201.434C453.92 201.3 453.747 201.233 453.54 201.233ZM453.54 200.431C453.849 200.431 454.128 200.489 454.376 200.605C454.624 200.721 454.829 200.904 454.99 201.154C455.136 201.375 455.23 201.631 455.274 201.922C455.299 202.093 455.309 202.338 455.304 202.659H452.759C452.772 203.032 452.889 203.294 453.11 203.444C453.244 203.537 453.406 203.584 453.595 203.584C453.795 203.584 453.958 203.527 454.083 203.413C454.151 203.352 454.211 203.267 454.263 203.157H455.257C455.231 203.378 455.117 203.602 454.912 203.83C454.593 204.191 454.147 204.372 453.574 204.372C453.101 204.372 452.684 204.22 452.322 203.915C451.96 203.61 451.779 203.114 451.779 202.427C451.779 201.783 451.942 201.29 452.267 200.946C452.595 200.603 453.019 200.431 453.54 200.431ZM458.526 202.39C458.526 202.103 458.46 201.849 458.328 201.629C458.198 201.408 457.987 201.298 457.693 201.298C457.34 201.298 457.098 201.465 456.966 201.799C456.898 201.977 456.864 202.202 456.864 202.475C456.864 202.907 456.979 203.211 457.208 203.386C457.345 203.488 457.506 203.54 457.693 203.54C457.964 203.54 458.17 203.435 458.311 203.226C458.454 203.016 458.526 202.738 458.526 202.39ZM457.973 200.448C458.407 200.448 458.775 200.608 459.075 200.929C459.378 201.25 459.529 201.721 459.529 202.342C459.529 202.997 459.381 203.496 459.085 203.84C458.792 204.183 458.413 204.355 457.949 204.355C457.653 204.355 457.408 204.281 457.212 204.133C457.105 204.052 457 203.932 456.898 203.775V205.713H455.936V200.53H456.867V201.079C456.972 200.918 457.083 200.79 457.202 200.697C457.418 200.531 457.675 200.448 457.973 200.448Z" fill="#CBD5E0"/>
<path d="M395.401 202.349H396.677L396.049 200.369L395.401 202.349ZM395.466 199.219H396.653L398.435 204.249H397.295L396.971 203.215H395.118L394.77 204.249H393.671L395.466 199.219ZM399.967 200.53V202.772C399.967 202.983 399.992 203.143 400.042 203.25C400.131 203.438 400.305 203.533 400.564 203.533C400.896 203.533 401.124 203.399 401.246 203.13C401.31 202.985 401.342 202.792 401.342 202.553V200.53H402.328V204.249H401.383V203.724C401.374 203.735 401.351 203.769 401.315 203.826C401.278 203.883 401.235 203.933 401.185 203.976C401.033 204.113 400.885 204.206 400.741 204.256C400.6 204.306 400.434 204.331 400.243 204.331C399.693 204.331 399.322 204.133 399.131 203.738C399.024 203.519 398.97 203.197 398.97 202.772V200.53H399.967ZM404.867 203.451C405.095 203.451 405.287 203.366 405.444 203.195C405.601 203.022 405.679 202.748 405.679 202.373C405.679 202.02 405.604 201.752 405.454 201.567C405.306 201.383 405.107 201.291 404.857 201.291C404.516 201.291 404.28 201.451 404.15 201.772C404.082 201.943 404.048 202.153 404.048 202.403C404.048 202.619 404.084 202.812 404.157 202.98C404.289 203.294 404.526 203.451 404.867 203.451ZM404.625 200.441C404.811 200.441 404.974 200.47 405.113 200.526C405.349 200.624 405.54 200.804 405.686 201.066V200.53H406.631V204.058C406.631 204.538 406.551 204.9 406.389 205.144C406.112 205.562 405.579 205.771 404.792 205.771C404.317 205.771 403.929 205.678 403.628 205.492C403.328 205.305 403.162 205.026 403.13 204.656H404.188C404.215 204.769 404.26 204.851 404.321 204.901C404.426 204.99 404.602 205.034 404.85 205.034C405.2 205.034 405.435 204.917 405.553 204.683C405.63 204.533 405.669 204.28 405.669 203.925V203.686C405.576 203.846 405.476 203.965 405.369 204.045C405.175 204.193 404.924 204.267 404.615 204.267C404.137 204.267 403.755 204.099 403.468 203.765C403.184 203.428 403.041 202.973 403.041 202.4C403.041 201.847 403.179 201.383 403.454 201.008C403.73 200.63 404.12 200.441 404.625 200.441Z" fill="#CBD5E0"/>
<path d="M344.67 202.342V202.458C344.679 202.847 344.721 203.121 344.797 203.28C344.874 203.437 345.038 203.516 345.288 203.516C345.536 203.516 345.7 203.429 345.779 203.256C345.827 203.154 345.851 202.981 345.851 202.738V199.219H346.902V202.721C346.902 203.148 346.828 203.487 346.68 203.738C346.43 204.161 345.978 204.372 345.325 204.372C344.673 204.372 344.235 204.202 344.012 203.86C343.789 203.517 343.677 203.049 343.677 202.458V202.342H344.67ZM348.837 200.53V202.772C348.837 202.983 348.862 203.143 348.912 203.25C349.001 203.438 349.175 203.533 349.434 203.533C349.766 203.533 349.994 203.399 350.117 203.13C350.18 202.985 350.212 202.792 350.212 202.553V200.53H351.198V204.249H350.253V203.724C350.244 203.735 350.221 203.769 350.185 203.826C350.148 203.883 350.105 203.933 350.055 203.976C349.903 204.113 349.755 204.206 349.612 204.256C349.47 204.306 349.304 204.331 349.113 204.331C348.563 204.331 348.192 204.133 348.001 203.738C347.894 203.519 347.84 203.197 347.84 202.772V200.53H348.837ZM353.133 204.249H352.161V199.219H353.133V204.249Z" fill="#CBD5E0"/>
<path d="M292.255 202.342V202.458C292.264 202.847 292.306 203.121 292.381 203.28C292.458 203.437 292.622 203.516 292.872 203.516C293.12 203.516 293.284 203.429 293.364 203.256C293.411 203.154 293.435 202.981 293.435 202.738V199.219H294.486V202.721C294.486 203.148 294.412 203.487 294.264 203.738C294.014 204.161 293.563 204.372 292.91 204.372C292.257 204.372 291.819 204.202 291.596 203.86C291.373 203.517 291.262 203.049 291.262 202.458V202.342H292.255ZM296.421 200.53V202.772C296.421 202.983 296.446 203.143 296.496 203.25C296.585 203.438 296.759 203.533 297.018 203.533C297.351 203.533 297.578 203.399 297.701 203.13C297.765 202.985 297.796 202.792 297.796 202.553V200.53H298.783V204.249H297.837V203.724C297.828 203.735 297.806 203.769 297.769 203.826C297.733 203.883 297.689 203.933 297.639 203.976C297.487 204.113 297.339 204.206 297.196 204.256C297.055 204.306 296.889 204.331 296.698 204.331C296.147 204.331 295.776 204.133 295.585 203.738C295.478 203.519 295.425 203.197 295.425 202.772V200.53H296.421ZM301.786 200.441C302.17 200.441 302.484 200.542 302.727 200.745C302.973 200.945 303.096 201.278 303.096 201.745V204.249H302.1V201.987C302.1 201.791 302.073 201.641 302.021 201.537C301.926 201.345 301.744 201.25 301.475 201.25C301.145 201.25 300.919 201.39 300.796 201.67C300.732 201.817 300.7 202.006 300.7 202.236V204.249H299.731V200.537H300.67V201.079C300.795 200.888 300.913 200.751 301.025 200.666C301.225 200.516 301.478 200.441 301.786 200.441Z" fill="#CBD5E0"/>
<path d="M241.51 199.219H243.022V204.249H242.043V200.847C242.043 200.749 242.044 200.613 242.046 200.438C242.048 200.26 242.049 200.124 242.049 200.028L241.097 204.249H240.077L239.132 200.028C239.132 200.124 239.133 200.26 239.135 200.438C239.137 200.613 239.139 200.749 239.139 200.847V204.249H238.159V199.219H239.688L240.602 203.175L241.51 199.219ZM245.97 202.441C245.909 202.48 245.846 202.511 245.783 202.536C245.721 202.559 245.636 202.581 245.527 202.601L245.308 202.642C245.104 202.679 244.957 202.723 244.868 202.775C244.718 202.864 244.643 203.002 244.643 203.188C244.643 203.354 244.688 203.475 244.779 203.55C244.873 203.623 244.985 203.659 245.117 203.659C245.326 203.659 245.519 203.598 245.694 203.475C245.871 203.352 245.963 203.128 245.97 202.803V202.441ZM245.38 201.987C245.56 201.964 245.688 201.936 245.766 201.902C245.904 201.843 245.974 201.75 245.974 201.625C245.974 201.473 245.92 201.368 245.813 201.311C245.709 201.252 245.554 201.223 245.349 201.223C245.119 201.223 244.957 201.279 244.861 201.393C244.793 201.477 244.748 201.591 244.725 201.734H243.786C243.807 201.409 243.898 201.142 244.059 200.933C244.316 200.605 244.758 200.441 245.383 200.441C245.791 200.441 246.152 200.522 246.469 200.683C246.785 200.845 246.943 201.15 246.943 201.598V203.304C246.943 203.422 246.945 203.566 246.95 203.734C246.957 203.862 246.976 203.948 247.008 203.994C247.04 204.039 247.087 204.077 247.151 204.106V204.249H246.093C246.064 204.174 246.043 204.104 246.032 204.038C246.02 203.972 246.011 203.897 246.004 203.813C245.87 203.958 245.716 204.082 245.54 204.185C245.331 204.305 245.094 204.365 244.831 204.365C244.494 204.365 244.215 204.27 243.994 204.079C243.776 203.885 243.667 203.612 243.667 203.26C243.667 202.803 243.843 202.472 244.196 202.267C244.389 202.155 244.674 202.076 245.049 202.028L245.38 201.987ZM247.96 204.963L248.083 204.969C248.178 204.974 248.269 204.971 248.356 204.959C248.442 204.948 248.515 204.922 248.574 204.881C248.631 204.842 248.683 204.761 248.731 204.638C248.781 204.516 248.802 204.441 248.792 204.413L247.427 200.53H248.509L249.321 203.273L250.089 200.53H251.123L249.847 204.188C249.601 204.893 249.407 205.33 249.263 205.498C249.12 205.669 248.833 205.754 248.403 205.754C248.317 205.754 248.248 205.753 248.195 205.751C248.143 205.751 248.064 205.748 247.96 205.741V204.963Z" fill="#CBD5E0"/>
<path d="M187.485 202.349H188.761L188.134 200.369L187.485 202.349ZM187.55 199.219H188.738L190.519 204.249H189.379L189.055 203.215H187.202L186.854 204.249H185.755L187.55 199.219ZM193.645 202.39C193.645 202.103 193.579 201.849 193.447 201.629C193.317 201.408 193.106 201.298 192.812 201.298C192.459 201.298 192.217 201.465 192.085 201.799C192.017 201.977 191.983 202.202 191.983 202.475C191.983 202.907 192.098 203.211 192.327 203.386C192.464 203.488 192.625 203.54 192.812 203.54C193.083 203.54 193.289 203.435 193.43 203.226C193.573 203.016 193.645 202.738 193.645 202.39ZM193.092 200.448C193.526 200.448 193.894 200.608 194.194 200.929C194.497 201.25 194.648 201.721 194.648 202.342C194.648 202.997 194.5 203.496 194.204 203.84C193.911 204.183 193.532 204.355 193.068 204.355C192.772 204.355 192.527 204.281 192.331 204.133C192.224 204.052 192.119 203.932 192.017 203.775V205.713H191.055V200.53H191.986V201.079C192.091 200.918 192.202 200.79 192.321 200.697C192.537 200.531 192.794 200.448 193.092 200.448ZM197.375 200.441C197.393 200.441 197.408 200.442 197.419 200.445C197.433 200.445 197.461 200.446 197.504 200.448V201.444C197.443 201.438 197.388 201.433 197.34 201.431C197.293 201.428 197.254 201.427 197.224 201.427C196.833 201.427 196.57 201.555 196.436 201.81C196.361 201.953 196.323 202.174 196.323 202.472V204.249H195.344V200.53H196.272V201.178C196.422 200.93 196.553 200.761 196.665 200.67C196.847 200.517 197.083 200.441 197.375 200.441Z" fill="#CBD5E0"/>
<path d="M137.028 199.219H138.54V204.249H137.561V200.847C137.561 200.749 137.562 200.613 137.564 200.438C137.566 200.26 137.567 200.124 137.567 200.028L136.615 204.249H135.595L134.65 200.028C134.65 200.124 134.651 200.26 134.653 200.438C134.655 200.613 134.657 200.749 134.657 200.847V204.249H133.677V199.219H135.206L136.12 203.175L137.028 199.219ZM141.488 202.441C141.427 202.48 141.364 202.511 141.301 202.536C141.239 202.559 141.154 202.581 141.045 202.601L140.826 202.642C140.622 202.679 140.475 202.723 140.386 202.775C140.236 202.864 140.161 203.002 140.161 203.188C140.161 203.354 140.206 203.475 140.297 203.55C140.391 203.623 140.503 203.659 140.635 203.659C140.844 203.659 141.037 203.598 141.212 203.475C141.389 203.352 141.481 203.128 141.488 202.803V202.441ZM140.898 201.987C141.078 201.964 141.206 201.936 141.284 201.902C141.422 201.843 141.492 201.75 141.492 201.625C141.492 201.473 141.438 201.368 141.331 201.311C141.227 201.252 141.072 201.223 140.867 201.223C140.637 201.223 140.475 201.279 140.379 201.393C140.311 201.477 140.265 201.591 140.243 201.734H139.304C139.325 201.409 139.416 201.142 139.577 200.933C139.834 200.605 140.276 200.441 140.901 200.441C141.309 200.441 141.67 200.522 141.987 200.683C142.303 200.845 142.461 201.15 142.461 201.598V203.304C142.461 203.422 142.463 203.566 142.468 203.734C142.474 203.862 142.494 203.948 142.526 203.994C142.558 204.039 142.605 204.077 142.669 204.106V204.249H141.611C141.582 204.174 141.561 204.104 141.55 204.038C141.538 203.972 141.529 203.897 141.522 203.813C141.388 203.958 141.233 204.082 141.058 204.185C140.849 204.305 140.612 204.365 140.349 204.365C140.012 204.365 139.733 204.27 139.512 204.079C139.294 203.885 139.185 203.612 139.185 203.26C139.185 202.803 139.361 202.472 139.714 202.267C139.907 202.155 140.192 202.076 140.567 202.028L140.898 201.987ZM145.348 200.441C145.366 200.441 145.381 200.442 145.392 200.445C145.406 200.445 145.434 200.446 145.477 200.448V201.444C145.416 201.438 145.361 201.433 145.314 201.431C145.266 201.428 145.227 201.427 145.198 201.427C144.806 201.427 144.544 201.555 144.409 201.81C144.334 201.953 144.297 202.174 144.297 202.472V204.249H143.317V200.53H144.246V201.178C144.396 200.93 144.527 200.761 144.638 200.67C144.82 200.517 145.057 200.441 145.348 200.441Z" fill="#CBD5E0"/>
<path d="M81.2785 199.226H84.8445V200.11H82.3227V201.267H84.5306V202.141H82.3227V204.249H81.2785V199.226ZM86.9398 201.233C86.7146 201.233 86.5394 201.303 86.4143 201.444C86.2914 201.585 86.2141 201.777 86.1822 202.018H87.6939C87.678 201.761 87.5995 201.566 87.4585 201.434C87.3197 201.3 87.1468 201.233 86.9398 201.233ZM86.9398 200.431C87.2492 200.431 87.5279 200.489 87.7758 200.605C88.0238 200.721 88.2286 200.904 88.3901 201.154C88.5357 201.375 88.6301 201.631 88.6733 201.922C88.6983 202.093 88.7086 202.338 88.704 202.659H86.1583C86.172 203.032 86.2891 203.294 86.5098 203.444C86.644 203.537 86.8056 203.584 86.9944 203.584C87.1946 203.584 87.3572 203.527 87.4824 203.413C87.5506 203.352 87.6109 203.267 87.6632 203.157H88.6563C88.6312 203.378 88.5163 203.602 88.3116 203.83C87.9931 204.191 87.5472 204.372 86.9739 204.372C86.5007 204.372 86.0832 204.22 85.7215 203.915C85.3598 203.61 85.1789 203.114 85.1789 202.427C85.1789 201.783 85.3416 201.29 85.6669 200.946C85.9945 200.603 86.4188 200.431 86.9398 200.431ZM91.3726 200.448C91.8617 200.448 92.2439 200.624 92.5192 200.977C92.7967 201.33 92.9355 201.785 92.9355 202.342C92.9355 202.92 92.799 203.399 92.526 203.779C92.253 204.158 91.872 204.348 91.3828 204.348C91.0757 204.348 90.8289 204.287 90.6423 204.164C90.5308 204.091 90.4103 203.964 90.2806 203.782V204.249H89.3285V199.226H90.2977V201.014C90.4205 200.842 90.5559 200.71 90.7037 200.619C90.8789 200.505 91.1019 200.448 91.3726 200.448ZM91.1235 203.546C91.3737 203.546 91.5682 203.445 91.707 203.243C91.8458 203.04 91.9152 202.774 91.9152 202.444C91.9152 202.18 91.8811 201.962 91.8128 201.789C91.6831 201.461 91.4443 201.298 91.0962 201.298C90.7436 201.298 90.5013 201.458 90.3693 201.779C90.3011 201.949 90.2669 202.17 90.2669 202.441C90.2669 202.759 90.3375 203.023 90.4785 203.233C90.6196 203.442 90.8346 203.546 91.1235 203.546Z" fill="#CBD5E0"/>
<path d="M29.8264 202.342V202.458C29.8355 202.847 29.8776 203.121 29.9527 203.28C30.03 203.437 30.1938 203.516 30.4441 203.516C30.6921 203.516 30.8559 203.429 30.9355 203.256C30.9833 203.154 31.0072 202.981 31.0072 202.738V199.219H32.0582V202.721C32.0582 203.148 31.9843 203.487 31.8364 203.738C31.5861 204.161 31.1346 204.372 30.4816 204.372C29.8287 204.372 29.3908 204.202 29.1678 203.86C28.9449 203.517 28.8334 203.049 28.8334 202.458V202.342H29.8264ZM35.0748 202.441C35.0134 202.48 34.9508 202.511 34.8871 202.536C34.8257 202.559 34.7404 202.581 34.6312 202.601L34.4128 202.642C34.2081 202.679 34.0613 202.723 33.9726 202.775C33.8225 202.864 33.7474 203.002 33.7474 203.188C33.7474 203.354 33.7929 203.475 33.8839 203.55C33.9771 203.623 34.0898 203.659 34.2217 203.659C34.431 203.659 34.6232 203.598 34.7984 203.475C34.9759 203.352 35.068 203.128 35.0748 202.803V202.441ZM34.4845 201.987C34.6642 201.964 34.7927 201.936 34.8701 201.902C35.0089 201.843 35.0782 201.75 35.0782 201.625C35.0782 201.473 35.0248 201.368 34.9179 201.311C34.8132 201.252 34.6585 201.223 34.4538 201.223C34.224 201.223 34.0613 201.279 33.9658 201.393C33.8975 201.477 33.852 201.591 33.8293 201.734H32.8908C32.9113 201.409 33.0023 201.142 33.1638 200.933C33.4209 200.605 33.8623 200.441 34.4879 200.441C34.8951 200.441 35.2568 200.522 35.5731 200.683C35.8893 200.845 36.0474 201.15 36.0474 201.598V203.304C36.0474 203.422 36.0497 203.566 36.0542 203.734C36.061 203.862 36.0804 203.948 36.1122 203.994C36.1441 204.039 36.1919 204.077 36.2556 204.106V204.249H35.1977C35.1681 204.174 35.1476 204.104 35.1363 204.038C35.1249 203.972 35.1158 203.897 35.109 203.813C34.9747 203.958 34.82 204.082 34.6449 204.185C34.4356 204.305 34.199 204.365 33.9351 204.365C33.5984 204.365 33.3197 204.27 33.099 204.079C32.8806 203.885 32.7714 203.612 32.7714 203.26C32.7714 202.803 32.9477 202.472 33.3003 202.267C33.4937 202.155 33.7781 202.076 34.1535 202.028L34.4845 201.987ZM38.9753 200.441C39.3598 200.441 39.6737 200.542 39.9171 200.745C40.1628 200.945 40.2857 201.278 40.2857 201.745V204.249H39.2892V201.987C39.2892 201.791 39.2631 201.641 39.2108 201.537C39.1152 201.345 38.9332 201.25 38.6648 201.25C38.3349 201.25 38.1085 201.39 37.9857 201.67C37.922 201.817 37.8901 202.006 37.8901 202.236V204.249H36.921V200.537H37.8594V201.079C37.9845 200.888 38.1028 200.751 38.2143 200.666C38.4145 200.516 38.6682 200.441 38.9753 200.441Z" fill="#CBD5E0"/>
<path d="M8.92496 179.809C8.92496 180.377 8.9716 180.813 9.06487 181.116C9.15815 181.416 9.34925 181.566 9.63817 181.566C9.92709 181.566 10.1159 181.416 10.2046 181.116C10.2956 180.813 10.3411 180.377 10.3411 179.809C10.3411 179.212 10.2956 178.771 10.2046 178.484C10.1159 178.198 9.92709 178.055 9.63817 178.055C9.34925 178.055 9.15815 178.198 9.06487 178.484C8.9716 178.771 8.92496 179.212 8.92496 179.809ZM9.63817 177.253C10.2683 177.253 10.7097 177.474 10.9622 177.918C11.217 178.362 11.3444 178.992 11.3444 179.809C11.3444 180.625 11.217 181.254 10.9622 181.696C10.7097 182.137 10.2683 182.358 9.63817 182.358C9.008 182.358 8.56551 182.137 8.31072 181.696C8.05819 181.254 7.93193 180.625 7.93193 179.809C7.93193 178.992 8.05819 178.362 8.31072 177.918C8.56551 177.474 9.008 177.253 9.63817 177.253Z" fill="#CBD5E0"/>
<path d="M0.510482 143.879V143.217C0.817605 143.203 1.03259 143.182 1.15544 143.155C1.35109 143.112 1.51034 143.025 1.63319 142.896C1.71736 142.807 1.78106 142.689 1.82429 142.541C1.84931 142.452 1.86182 142.386 1.86182 142.343H2.67058V147.291H1.67414V143.879H0.510482ZM5.12757 144.865C5.12757 145.433 5.17421 145.869 5.26748 146.172C5.36076 146.472 5.55186 146.622 5.84078 146.622C6.1297 146.622 6.31853 146.472 6.40725 146.172C6.49825 145.869 6.54375 145.433 6.54375 144.865C6.54375 144.269 6.49825 143.827 6.40725 143.541C6.31853 143.254 6.1297 143.111 5.84078 143.111C5.55186 143.111 5.36076 143.254 5.26748 143.541C5.17421 143.827 5.12757 144.269 5.12757 144.865ZM5.84078 142.309C6.47095 142.309 6.9123 142.531 7.16482 142.974C7.41962 143.418 7.54702 144.048 7.54702 144.865C7.54702 145.681 7.41962 146.31 7.16482 146.752C6.9123 147.193 6.47095 147.414 5.84078 147.414C5.21061 147.414 4.76812 147.193 4.51332 146.752C4.2608 146.31 4.13454 145.681 4.13454 144.865C4.13454 144.048 4.2608 143.418 4.51332 142.974C4.76812 142.531 5.21061 142.309 5.84078 142.309ZM9.0178 144.865C9.0178 145.433 9.06444 145.869 9.15771 146.172C9.25099 146.472 9.44209 146.622 9.73101 146.622C10.0199 146.622 10.2088 146.472 10.2975 146.172C10.3885 145.869 10.434 145.433 10.434 144.865C10.434 144.269 10.3885 143.827 10.2975 143.541C10.2088 143.254 10.0199 143.111 9.73101 143.111C9.44209 143.111 9.25099 143.254 9.15771 143.541C9.06444 143.827 9.0178 144.269 9.0178 144.865ZM9.73101 142.309C10.3612 142.309 10.8025 142.531 11.0551 142.974C11.3099 143.418 11.4372 144.048 11.4372 144.865C11.4372 145.681 11.3099 146.31 11.0551 146.752C10.8025 147.193 10.3612 147.414 9.73101 147.414C9.10084 147.414 8.65835 147.193 8.40355 146.752C8.15103 146.31 8.02477 145.681 8.02477 144.865C8.02477 144.048 8.15103 143.418 8.40355 142.974C8.65835 142.531 9.10084 142.309 9.73101 142.309Z" fill="#CBD5E0"/>
<path d="M0.244308 112.347C0.253408 111.992 0.32962 111.668 0.472945 111.375C0.611719 111.045 0.939317 110.696 1.45574 110.327C1.90391 110.006 2.19397 109.776 2.32592 109.638C2.5284 109.422 2.62963 109.185 2.62963 108.928C2.62963 108.719 2.57162 108.545 2.4556 108.406C2.33957 108.267 2.1735 108.198 1.95737 108.198C1.66163 108.198 1.46029 108.308 1.35336 108.529C1.29194 108.656 1.25554 108.858 1.24417 109.136H0.298908C0.314833 108.715 0.391045 108.375 0.527544 108.116C0.786893 107.622 1.24758 107.375 1.9096 107.375C2.43285 107.375 2.84917 107.521 3.15857 107.812C3.46797 108.101 3.62267 108.484 3.62267 108.962C3.62267 109.328 3.51347 109.654 3.29507 109.938C3.15174 110.127 2.91628 110.337 2.58868 110.569L2.19966 110.846C1.95624 111.019 1.78903 111.144 1.69803 111.221C1.6093 111.298 1.53423 111.388 1.4728 111.491H3.6329V112.347H0.244308ZM5.12757 109.921C5.12757 110.49 5.17421 110.925 5.26748 111.228C5.36076 111.528 5.55186 111.678 5.84078 111.678C6.1297 111.678 6.31853 111.528 6.40725 111.228C6.49825 110.925 6.54375 110.49 6.54375 109.921C6.54375 109.325 6.49825 108.883 6.40725 108.597C6.31853 108.31 6.1297 108.167 5.84078 108.167C5.55186 108.167 5.36076 108.31 5.26748 108.597C5.17421 108.883 5.12757 109.325 5.12757 109.921ZM5.84078 107.365C6.47095 107.365 6.9123 107.587 7.16482 108.03C7.41962 108.474 7.54702 109.104 7.54702 109.921C7.54702 110.738 7.41962 111.367 7.16482 111.808C6.9123 112.249 6.47095 112.47 5.84078 112.47C5.21061 112.47 4.76812 112.249 4.51332 111.808C4.2608 111.367 4.13454 110.738 4.13454 109.921C4.13454 109.104 4.2608 108.474 4.51332 108.03C4.76812 107.587 5.21061 107.365 5.84078 107.365ZM9.0178 109.921C9.0178 110.49 9.06444 110.925 9.15771 111.228C9.25099 111.528 9.44209 111.678 9.73101 111.678C10.0199 111.678 10.2088 111.528 10.2975 111.228C10.3885 110.925 10.434 110.49 10.434 109.921C10.434 109.325 10.3885 108.883 10.2975 108.597C10.2088 108.31 10.0199 108.167 9.73101 108.167C9.44209 108.167 9.25099 108.31 9.15771 108.597C9.06444 108.883 9.0178 109.325 9.0178 109.921ZM9.73101 107.365C10.3612 107.365 10.8025 107.587 11.0551 108.03C11.3099 108.474 11.4372 109.104 11.4372 109.921C11.4372 110.738 11.3099 111.367 11.0551 111.808C10.8025 112.249 10.3612 112.47 9.73101 112.47C9.10084 112.47 8.65835 112.249 8.40355 111.808C8.15103 111.367 8.02477 110.738 8.02477 109.921C8.02477 109.104 8.15103 108.474 8.40355 108.03C8.65835 107.587 9.10084 107.365 9.73101 107.365Z" fill="#CBD5E0"/>
<path d="M1.16568 75.8848C1.16568 76.0827 1.19753 76.2465 1.26123 76.3762C1.37953 76.6151 1.59451 76.7345 1.90619 76.7345C2.09729 76.7345 2.26336 76.6697 2.40441 76.54C2.54773 76.408 2.6194 76.2192 2.6194 75.9735C2.6194 75.6482 2.48745 75.4309 2.22355 75.3217C2.0734 75.2603 1.8368 75.2296 1.51375 75.2296V74.5335C1.82997 74.5289 2.05065 74.4982 2.17577 74.4413C2.3919 74.3458 2.49996 74.1524 2.49996 73.8612C2.49996 73.6724 2.44422 73.5188 2.33275 73.4005C2.22355 73.2822 2.06885 73.2231 1.86865 73.2231C1.63888 73.2231 1.46939 73.2959 1.36019 73.4415C1.25327 73.5871 1.20208 73.7816 1.20663 74.025H0.298908C0.308008 73.7793 0.350095 73.5461 0.42517 73.3254C0.504794 73.1321 0.629919 72.9535 0.800543 72.7897C0.927942 72.6737 1.07923 72.5849 1.2544 72.5235C1.42958 72.4621 1.64456 72.4314 1.89936 72.4314C2.37256 72.4314 2.75362 72.5542 3.04254 72.7999C3.33374 73.0433 3.47934 73.3709 3.47934 73.7827C3.47934 74.0739 3.39289 74.3196 3.21999 74.5198C3.11079 74.6449 2.99704 74.7302 2.87874 74.7757C2.96747 74.7757 3.09487 74.852 3.26094 75.0044C3.50892 75.2341 3.6329 75.5481 3.6329 75.9462C3.6329 76.3648 3.4873 76.7334 3.19611 77.0519C2.90718 77.3681 2.47835 77.5262 1.9096 77.5262C1.2089 77.5262 0.722056 77.2976 0.449057 76.8403C0.305733 76.5969 0.226108 76.2784 0.210183 75.8848H1.16568ZM5.12757 74.9771C5.12757 75.5458 5.17421 75.9815 5.26748 76.2841C5.36076 76.5844 5.55186 76.7345 5.84078 76.7345C6.1297 76.7345 6.31853 76.5844 6.40725 76.2841C6.49825 75.9815 6.54375 75.5458 6.54375 74.9771C6.54375 74.381 6.49825 73.9397 6.40725 73.653C6.31853 73.3664 6.1297 73.2231 5.84078 73.2231C5.55186 73.2231 5.36076 73.3664 5.26748 73.653C5.17421 73.9397 5.12757 74.381 5.12757 74.9771ZM5.84078 72.4211C6.47095 72.4211 6.9123 72.6429 7.16482 73.0866C7.41962 73.5302 7.54702 74.1604 7.54702 74.9771C7.54702 75.7938 7.41962 76.4228 7.16482 76.8642C6.9123 77.3055 6.47095 77.5262 5.84078 77.5262C5.21061 77.5262 4.76812 77.3055 4.51332 76.8642C4.2608 76.4228 4.13454 75.7938 4.13454 74.9771C4.13454 74.1604 4.2608 73.5302 4.51332 73.0866C4.76812 72.6429 5.21061 72.4211 5.84078 72.4211ZM9.0178 74.9771C9.0178 75.5458 9.06444 75.9815 9.15771 76.2841C9.25099 76.5844 9.44209 76.7345 9.73101 76.7345C10.0199 76.7345 10.2088 76.5844 10.2975 76.2841C10.3885 75.9815 10.434 75.5458 10.434 74.9771C10.434 74.381 10.3885 73.9397 10.2975 73.653C10.2088 73.3664 10.0199 73.2231 9.73101 73.2231C9.44209 73.2231 9.25099 73.3664 9.15771 73.653C9.06444 73.9397 9.0178 74.381 9.0178 74.9771ZM9.73101 72.4211C10.3612 72.4211 10.8025 72.6429 11.0551 73.0866C11.3099 73.5302 11.4372 74.1604 11.4372 74.9771C11.4372 75.7938 11.3099 76.4228 11.0551 76.8642C10.8025 77.3055 10.3612 77.5262 9.73101 77.5262C9.10084 77.5262 8.65835 77.3055 8.40355 76.8642C8.15103 76.4228 8.02477 75.7938 8.02477 74.9771C8.02477 74.1604 8.15103 73.5302 8.40355 73.0866C8.65835 72.6429 9.10084 72.4211 9.73101 72.4211Z" fill="#CBD5E0"/>
<path d="M3.68068 41.3948H3.12103V42.4595H2.16895V41.3948H0.210183V40.5451L2.02904 37.5421H3.12103V40.6339H3.68068V41.3948ZM2.16895 40.6339V38.4976L0.930217 40.6339H2.16895ZM5.12757 40.0333C5.12757 40.602 5.17421 41.0377 5.26748 41.3402C5.36076 41.6405 5.55186 41.7907 5.84078 41.7907C6.1297 41.7907 6.31853 41.6405 6.40725 41.3402C6.49825 41.0377 6.54375 40.602 6.54375 40.0333C6.54375 39.4372 6.49825 38.9959 6.40725 38.7092C6.31853 38.4226 6.1297 38.2792 5.84078 38.2792C5.55186 38.2792 5.36076 38.4226 5.26748 38.7092C5.17421 38.9959 5.12757 39.4372 5.12757 40.0333ZM5.84078 37.4773C6.47095 37.4773 6.9123 37.6991 7.16482 38.1427C7.41962 38.5864 7.54702 39.2165 7.54702 40.0333C7.54702 40.85 7.41962 41.479 7.16482 41.9204C6.9123 42.3617 6.47095 42.5824 5.84078 42.5824C5.21061 42.5824 4.76812 42.3617 4.51332 41.9204C4.2608 41.479 4.13454 40.85 4.13454 40.0333C4.13454 39.2165 4.2608 38.5864 4.51332 38.1427C4.76812 37.6991 5.21061 37.4773 5.84078 37.4773ZM9.0178 40.0333C9.0178 40.602 9.06444 41.0377 9.15771 41.3402C9.25099 41.6405 9.44209 41.7907 9.73101 41.7907C10.0199 41.7907 10.2088 41.6405 10.2975 41.3402C10.3885 41.0377 10.434 40.602 10.434 40.0333C10.434 39.4372 10.3885 38.9959 10.2975 38.7092C10.2088 38.4226 10.0199 38.2792 9.73101 38.2792C9.44209 38.2792 9.25099 38.4226 9.15771 38.7092C9.06444 38.9959 9.0178 39.4372 9.0178 40.0333ZM9.73101 37.4773C10.3612 37.4773 10.8025 37.6991 11.0551 38.1427C11.3099 38.5864 11.4372 39.2165 11.4372 40.0333C11.4372 40.85 11.3099 41.479 11.0551 41.9204C10.8025 42.3617 10.3612 42.5824 9.73101 42.5824C9.10084 42.5824 8.65835 42.3617 8.40355 41.9204C8.15103 41.479 8.02477 40.85 8.02477 40.0333C8.02477 39.2165 8.15103 38.5864 8.40355 38.1427C8.65835 37.6991 9.10084 37.4773 9.73101 37.4773Z" fill="#CBD5E0"/>
<path d="M1.1793 6.19167C1.21797 6.40325 1.29191 6.56705 1.40111 6.68307C1.51031 6.79682 1.66956 6.8537 1.87886 6.8537C2.12001 6.8537 2.30314 6.76952 2.42827 6.60117C2.55567 6.43055 2.61937 6.2167 2.61937 5.95962C2.61937 5.7071 2.56022 5.49439 2.44192 5.32149C2.32362 5.14632 2.13934 5.05873 1.88909 5.05873C1.77079 5.05873 1.66842 5.07352 1.58197 5.10309C1.42955 5.15769 1.31466 5.25893 1.23731 5.4068L0.363715 5.36585L0.711788 2.63245H3.43836V3.45828H1.41476L1.23731 4.54003C1.38746 4.44221 1.50462 4.37737 1.5888 4.34552C1.72984 4.2932 1.90161 4.26703 2.10408 4.26703C2.51358 4.26703 2.87075 4.40467 3.1756 4.67994C3.48045 4.95522 3.63287 5.35562 3.63287 5.88114C3.63287 6.33841 3.48614 6.74677 3.19266 7.10622C2.89919 7.46567 2.46012 7.64539 1.87544 7.64539C1.40452 7.64539 1.01777 7.51913 0.7152 7.26661C0.412627 7.01408 0.244278 6.65577 0.210153 6.19167H1.1793ZM5.12754 5.08944C5.12754 5.65819 5.17418 6.09385 5.26745 6.39642C5.36073 6.69672 5.55183 6.84687 5.84075 6.84687C6.12967 6.84687 6.3185 6.69672 6.40722 6.39642C6.49822 6.09385 6.54372 5.65819 6.54372 5.08944C6.54372 4.49339 6.49822 4.05205 6.40722 3.7654C6.3185 3.47875 6.12967 3.33543 5.84075 3.33543C5.55183 3.33543 5.36073 3.47875 5.26745 3.7654C5.17418 4.05205 5.12754 4.49339 5.12754 5.08944ZM5.84075 2.53349C6.47092 2.53349 6.91227 2.7553 7.16479 3.19893C7.41959 3.64255 7.54699 4.27272 7.54699 5.08944C7.54699 5.90616 7.41959 6.5352 7.16479 6.97654C6.91227 7.41789 6.47092 7.63857 5.84075 7.63857C5.21058 7.63857 4.76809 7.41789 4.51329 6.97654C4.26077 6.5352 4.13451 5.90616 4.13451 5.08944C4.13451 4.27272 4.26077 3.64255 4.51329 3.19893C4.76809 2.7553 5.21058 2.53349 5.84075 2.53349ZM9.01777 5.08944C9.01777 5.65819 9.06441 6.09385 9.15768 6.39642C9.25096 6.69672 9.44205 6.84687 9.73098 6.84687C10.0199 6.84687 10.2087 6.69672 10.2975 6.39642C10.3884 6.09385 10.4339 5.65819 10.4339 5.08944C10.4339 4.49339 10.3884 4.05205 10.2975 3.7654C10.2087 3.47875 10.0199 3.33543 9.73098 3.33543C9.44205 3.33543 9.25096 3.47875 9.15768 3.7654C9.06441 4.05205 9.01777 4.49339 9.01777 5.08944ZM9.73098 2.53349C10.3611 2.53349 10.8025 2.7553 11.055 3.19893C11.3098 3.64255 11.4372 4.27272 11.4372 5.08944C11.4372 5.90616 11.3098 6.5352 11.055 6.97654C10.8025 7.41789 10.3611 7.63857 9.73098 7.63857C9.10081 7.63857 8.65832 7.41789 8.40352 6.97654C8.151 6.5352 8.02474 5.90616 8.02474 5.08944C8.02474 4.27272 8.151 3.64255 8.40352 3.19893C8.65832 2.7553 9.10081 2.53349 9.73098 2.53349Z" fill="#CBD5E0"/>
<line x1="29.0293" y1="180.127" x2="615.387" y2="180.127" stroke="#E2E8F0" stroke-width="0.698876" stroke-linecap="round" stroke-linejoin="round" stroke-dasharray="2.45 2.45"/>
<line x1="29.0293" y1="145.183" x2="615.387" y2="145.183" stroke="#E2E8F0" stroke-width="0.698876" stroke-linecap="round" stroke-linejoin="round" stroke-dasharray="2.45 2.45"/>
<line x1="29.0293" y1="110.239" x2="615.387" y2="110.239" stroke="#E2E8F0" stroke-width="0.698876" stroke-linecap="round" stroke-linejoin="round" stroke-dasharray="2.45 2.45"/>
<line x1="29.0293" y1="75.2955" x2="615.387" y2="75.2955" stroke="#E2E8F0" stroke-width="0.698876" stroke-linecap="round" stroke-linejoin="round" stroke-dasharray="2.45 2.45"/>
<line x1="29.0293" y1="40.3517" x2="615.387" y2="40.3517" stroke="#E2E8F0" stroke-width="0.698876" stroke-linecap="round" stroke-linejoin="round" stroke-dasharray="2.45 2.45"/>
<line x1="29.0293" y1="5.40786" x2="615.387" y2="5.40791" stroke="#E2E8F0" stroke-width="0.698876" stroke-linecap="round" stroke-linejoin="round" stroke-dasharray="2.45 2.45"/>
<path d="M535.507 124.248C565.984 115.095 601.692 128.062 615.736 135.69V180.302H28.6798V5.75728C58.1731 10.9934 77.133 54.0459 81.873 81.39C85.739 103.692 85.9108 119.594 106.451 124.248C127.101 128.928 151.583 114.038 172.299 93.8695C188.871 77.7345 213.613 87.1466 223.912 93.8695C242.17 105.57 272.245 113.505 296.401 101.559C326.597 86.6261 343.275 90.8925 381.37 101.559C419.465 112.225 415.603 119.012 447.379 135.69C479.154 152.368 497.412 135.69 535.507 124.248Z" fill="url(#paint0_linear_1_1043)"/>
<path d="M615.736 135.69C601.692 128.062 565.984 115.095 535.507 124.248C497.412 135.69 479.154 152.368 447.379 135.69C415.603 119.012 419.465 112.225 381.37 101.559C343.275 90.8925 326.597 86.6261 296.401 101.559C272.245 113.505 242.17 105.57 223.912 93.8695C213.613 87.1466 188.871 77.7345 172.299 93.8695C151.583 114.038 127.101 128.928 106.451 124.248C85.9108 119.594 85.739 103.692 81.873 81.39C77.133 54.0459 58.1731 10.9934 28.6798 5.75728" stroke="#2D3748" stroke-width="2.09663"/>
<path d="M108.292 105.317C78.0497 96.1701 42.6163 109.128 28.6799 116.75V180.127H615.037V30.1533C585.771 35.3855 560.909 34.0287 556.205 61.3528C552.369 83.6384 552.199 99.529 531.817 104.18C511.326 108.856 499.414 81.5067 478.858 61.3528C462.413 45.2297 434.717 66.2101 424.497 72.9281C406.38 84.6199 365.194 59.11 347.345 39.0574C321.858 10.4244 288.342 7.80558 263.029 39.0574C237.716 70.3092 212.608 44.6871 181.077 61.3528C149.546 78.0185 146.094 116.75 108.292 105.317Z" fill="url(#paint1_linear_1_1043)"/>
<path d="M28.6799 116.879C42.6163 109.247 78.0497 96.272 108.292 105.431C146.094 116.879 149.546 78.0972 181.077 61.4101C212.608 44.723 237.716 70.3779 263.029 39.0861C288.342 7.79433 321.859 10.4165 347.345 39.0861C365.194 59.1645 406.38 84.707 424.497 73.0002C434.717 66.2736 462.413 45.2663 478.858 61.4101C499.414 81.5898 511.326 108.974 531.817 104.292C552.199 99.6352 552.369 83.7243 556.205 61.4101C560.909 34.051 585.771 35.4096 615.037 30.1706" stroke="#4FD1C5" stroke-width="2.09663"/>
<defs>
<linearGradient id="paint0_linear_1_1043" x1="322.208" y1="5.75728" x2="322.208" y2="180.302" gradientUnits="userSpaceOnUse">
<stop stop-color="#2D3748" stop-opacity="0.36"/>
<stop offset="1" stop-color="#2D3748" stop-opacity="0"/>
</linearGradient>
<linearGradient id="paint1_linear_1_1043" x1="321.858" y1="16.5899" x2="321.858" y2="180.127" gradientUnits="userSpaceOnUse">
<stop stop-color="#4FD1C5" stop-opacity="0.54"/>
<stop offset="1" stop-color="#4FD1C5" stop-opacity="0"/>
</linearGradient>
</defs>
</svg>
